<svg xmlns="http://www.w3.org/2000/svg" version="1.1" width="1000" height="623" viewBox="0 0 1000 623">
  <g transform="matrix(1,0,0,1,-0.6060606060606233,0.2522267206477409)"><svg viewBox="0 0 396 247"
      data-background-color="#ffffff" preserveAspectRatio="xMidYMid meet" height="623" width="1000"
      xmlns="http://www.w3.org/2000/svg">
      <g id="tight-bounds" transform="matrix(1,0,0,1,0.2400000000000091,-0.09999999999999432)"><svg
          viewBox="0 0 395.52 247.2" height="247.2" width="395.52">
          <g><svg></svg></g>
          <g><svg viewBox="0 0 395.52 247.2" height="247.2" width="395.52">
              <g transform="matrix(1,0,0,1,75.54432000000001,67.326506814712)"><svg
                  viewBox="0 0 244.43135999999996 112.54698637057598" height="112.54698637057598"
                  width="244.43135999999996">
                  <g><svg viewBox="0 0 244.43135999999996 112.54698637057598" height="112.54698637057598"
                      width="244.43135999999996">
                      <g><svg viewBox="0 0 244.43135999999996 112.54698637057598" height="112.54698637057598"
                          width="244.43135999999996">
                          <g><svg viewBox="0 0 244.43135999999996 112.54698637057598" height="112.54698637057598"
                              width="244.43135999999996">
                              <g><svg viewBox="0 0 244.43135999999996 112.54698637057598" height="112.54698637057598"
                                  width="244.43135999999996">
                                  <g><svg viewBox="0 0 244.43135999999996 112.54698637057598"
                                      height="112.54698637057598" width="244.43135999999996">
                                      <g transform="matrix(1,0,0,1,0,0)"><svg width="244.43135999999996"
                                          viewBox="0.22 -32.4 70.36 32.4" height="112.54698637057598"
                                          data-palette-color="#ADB5BD">
                                          <path
                                            d="M25.49 0L24.12-3.54 13.53-3.54 15.77-9.96 21.63-9.96 12.96-32.4 23.49-32.4 36.4 0 25.49 0ZM16.58-18.07L10.64 0 0.22 0 11.79-30.93 16.58-18.07ZM50.88-32.4L70.58 0 59.1 0 39.48-32.4 50.88-32.4ZM48.87 0L39.48 0 39.48-29.32 48.87-13.92 48.87 0ZM61.18-32.4L70.58-32.4 70.58-3.08 61.18-18.55 61.18-32.4Z"
                                            opacity="1" transform="matrix(1,0,0,1,0,0)" fill="#ADB5BD"
                                            class="undefined-text-0" data-fill-palette-color="primary" id="text-0">
                                          </path>
                                        </svg></g>
                                    </svg></g>
                                </svg></g>
                            </svg></g>
                        </svg></g>
                    </svg></g>
                </svg></g>
              <path
                d="M234.479 61.327L234.479 12.081 11.442 12.081 11.442 235.119 234.479 235.119 234.479 185.873 224.329 185.873 224.329 224.969 21.591 224.969 21.591 22.231 224.329 22.231 224.329 61.327Z"
                fill="#868E96" stroke="transparent" data-fill-palette-color="primary"></path>
            </svg></g>
          <defs></defs>
        </svg>
        <rect width="395.52" height="247.2" fill="none" stroke="none" visibility="hidden"></rect>
      </g>
    </svg></g>
</svg>
